<svg xmlns="http://www.w3.org/2000/svg" xmlns:xlink="http://www.w3.org/1999/xlink" width="2000" zoomAndPan="magnify" viewBox="0 0 1500 1499.999933" height="2000" preserveAspectRatio="xMidYMid meet" version="1.0"><path fill="#000000" d="M 750 0 C 336.445312 0 0 336.445312 0 750 C 0 927.011719 63.046875 1098.941406 177.511719 1234.101562 C 188.144531 1246.714844 207.070312 1248.324219 219.785156 1237.601562 C 232.414062 1226.894531 233.996094 1207.96875 223.273438 1195.3125 C 117.980469 1070.976562 60 912.832031 60 750 C 60 496.972656 196.988281 275.453125 400.609375 155.355469 C 428.230469 240.15625 507.542969 300 600 300 C 715.78125 300 810 205.796875 810 90 C 810 80.769531 808.878906 71.671875 807.671875 62.59375 C 1051.070312 82.847656 1258.875 229.886719 1364.816406 437.394531 C 1315.300781 454.011719 1270.253906 481.992188 1233.164062 519.917969 C 1221.59375 531.75 1221.796875 550.746094 1233.628906 562.332031 C 1245.453125 573.917969 1264.5625 573.589844 1276.054688 561.871094 C 1307.945312 529.257812 1347.152344 506.097656 1390.082031 492.792969 C 1422.160156 572.339844 1440 659.101562 1440 750 C 1440 841.132812 1422.074219 928.109375 1389.839844 1007.824219 C 1278.5 973.210938 1200 868.472656 1200 750 C 1200 716.585938 1206.152344 683.933594 1218.3125 652.953125 C 1224.375 637.527344 1216.757812 620.125 1201.347656 614.0625 C 1185.90625 608.054688 1168.503906 615.601562 1162.46875 631.039062 C 1147.558594 669.039062 1140 709.058594 1140 750 C 1140 892.175781 1232.652344 1017.976562 1364.847656 1062.546875 C 1250.628906 1286.316406 1018.003906 1440 750 1440 C 587.199219 1440 429.054688 1382.007812 304.6875 1276.699219 C 291.972656 1265.945312 273.078125 1267.574219 262.414062 1280.214844 C 251.691406 1292.855469 253.273438 1311.78125 265.898438 1322.488281 C 401.105469 1436.953125 573.019531 1500 750 1500 C 1163.554688 1500 1500 1163.554688 1500 750 C 1500 336.445312 1163.554688 0 750 0 Z M 600 240 C 530.324219 240 471.507812 192.265625 455.097656 126.34375 C 543.609375 84.320312 642.40625 60.589844 746.613281 60.085938 C 748.644531 69.910156 750 79.867188 750 90 C 750 172.703125 682.707031 240 600 240 Z M 600 240 " fill-opacity="1" fill-rule="nonzero"/><path fill="#000000" d="M 150 720 C 150 852.332031 244.21875 960 360 960 C 475.78125 960 570 852.332031 570 720 C 570 587.664062 475.78125 480 360 480 C 244.21875 480 150 587.664062 150 720 Z M 510 720 C 510 819.257812 442.707031 900 360 900 C 277.296875 900 210 819.257812 210 720 C 210 620.742188 277.296875 540 360 540 C 442.707031 540 510 620.742188 510 720 Z M 510 720 " fill-opacity="1" fill-rule="nonzero"/><path fill="#000000" d="M 660 1170 C 660 1252.703125 740.742188 1320 840 1320 C 939.257812 1320 1020 1252.703125 1020 1170 C 1020 1087.292969 939.257812 1020 840 1020 C 740.742188 1020 660 1087.292969 660 1170 Z M 840 1080 C 906.179688 1080 960 1120.371094 960 1170 C 960 1219.628906 906.179688 1260 840 1260 C 773.820312 1260 720 1219.628906 720 1170 C 720 1120.371094 773.820312 1080 840 1080 Z M 840 1080 " fill-opacity="1" fill-rule="nonzero"/><path fill="#000000" d="M 570 1260 C 570 1260.984375 569.953125 1261.960938 569.855469 1262.941406 C 569.757812 1263.917969 569.617188 1264.890625 569.421875 1265.851562 C 569.230469 1266.816406 568.992188 1267.769531 568.707031 1268.707031 C 568.421875 1269.648438 568.09375 1270.574219 567.714844 1271.480469 C 567.339844 1272.386719 566.921875 1273.273438 566.457031 1274.140625 C 565.996094 1275.007812 565.488281 1275.851562 564.945312 1276.667969 C 564.398438 1277.484375 563.8125 1278.273438 563.191406 1279.03125 C 562.566406 1279.792969 561.90625 1280.519531 561.214844 1281.214844 C 560.519531 1281.90625 559.792969 1282.566406 559.03125 1283.191406 C 558.273438 1283.8125 557.484375 1284.398438 556.667969 1284.945312 C 555.851562 1285.488281 555.007812 1285.996094 554.140625 1286.457031 C 553.273438 1286.921875 552.386719 1287.339844 551.480469 1287.714844 C 550.574219 1288.09375 549.648438 1288.421875 548.707031 1288.707031 C 547.769531 1288.992188 546.816406 1289.230469 545.851562 1289.421875 C 544.890625 1289.613281 543.917969 1289.757812 542.941406 1289.855469 C 541.960938 1289.953125 540.984375 1290 540 1290 C 539.015625 1290 538.039062 1289.953125 537.058594 1289.855469 C 536.082031 1289.757812 535.109375 1289.613281 534.148438 1289.421875 C 533.183594 1289.230469 532.230469 1288.992188 531.292969 1288.707031 C 530.351562 1288.421875 529.425781 1288.09375 528.519531 1287.714844 C 527.613281 1287.339844 526.722656 1286.921875 525.859375 1286.457031 C 524.992188 1285.996094 524.148438 1285.488281 523.332031 1284.945312 C 522.515625 1284.398438 521.726562 1283.8125 520.96875 1283.191406 C 520.207031 1282.566406 519.480469 1281.90625 518.785156 1281.214844 C 518.09375 1280.519531 517.433594 1279.792969 516.808594 1279.03125 C 516.1875 1278.273438 515.601562 1277.484375 515.054688 1276.667969 C 514.511719 1275.851562 514.003906 1275.007812 513.542969 1274.140625 C 513.078125 1273.273438 512.660156 1272.386719 512.285156 1271.480469 C 511.90625 1270.574219 511.578125 1269.648438 511.292969 1268.707031 C 511.007812 1267.769531 510.769531 1266.816406 510.578125 1265.851562 C 510.382812 1264.890625 510.242188 1263.917969 510.144531 1262.941406 C 510.046875 1261.960938 510 1260.984375 510 1260 C 510 1259.015625 510.046875 1258.039062 510.144531 1257.058594 C 510.242188 1256.082031 510.382812 1255.109375 510.578125 1254.148438 C 510.769531 1253.183594 511.007812 1252.230469 511.292969 1251.292969 C 511.578125 1250.351562 511.90625 1249.425781 512.285156 1248.519531 C 512.660156 1247.613281 513.078125 1246.722656 513.542969 1245.859375 C 514.003906 1244.992188 514.511719 1244.148438 515.054688 1243.332031 C 515.601562 1242.515625 516.1875 1241.726562 516.808594 1240.96875 C 517.433594 1240.207031 518.09375 1239.480469 518.785156 1238.785156 C 519.480469 1238.09375 520.207031 1237.433594 520.96875 1236.808594 C 521.726562 1236.1875 522.515625 1235.601562 523.332031 1235.054688 C 524.148438 1234.511719 524.992188 1234.003906 525.859375 1233.542969 C 526.722656 1233.078125 527.613281 1232.660156 528.519531 1232.285156 C 529.425781 1231.90625 530.351562 1231.578125 531.292969 1231.292969 C 532.230469 1231.007812 533.183594 1230.769531 534.148438 1230.578125 C 535.109375 1230.382812 536.082031 1230.242188 537.058594 1230.144531 C 538.039062 1230.046875 539.015625 1230 540 1230 C 540.984375 1230 541.960938 1230.046875 542.941406 1230.144531 C 543.917969 1230.242188 544.890625 1230.382812 545.851562 1230.578125 C 546.816406 1230.769531 547.769531 1231.007812 548.707031 1231.292969 C 549.648438 1231.578125 550.574219 1231.90625 551.480469 1232.285156 C 552.386719 1232.660156 553.273438 1233.078125 554.140625 1233.542969 C 555.007812 1234.003906 555.851562 1234.511719 556.667969 1235.054688 C 557.484375 1235.601562 558.273438 1236.1875 559.03125 1236.808594 C 559.792969 1237.433594 560.519531 1238.09375 561.214844 1238.785156 C 561.90625 1239.480469 562.566406 1240.207031 563.191406 1240.96875 C 563.8125 1241.726562 564.398438 1242.515625 564.945312 1243.332031 C 565.488281 1244.148438 565.996094 1244.992188 566.457031 1245.859375 C 566.921875 1246.722656 567.339844 1247.613281 567.714844 1248.519531 C 568.09375 1249.425781 568.421875 1250.351562 568.707031 1251.292969 C 568.992188 1252.230469 569.230469 1253.183594 569.421875 1254.148438 C 569.617188 1255.109375 569.757812 1256.082031 569.855469 1257.058594 C 569.953125 1258.039062 570 1259.015625 570 1260 Z M 570 1260 " fill-opacity="1" fill-rule="nonzero"/><path fill="#000000" d="M 390 1140 C 390 1140.984375 389.953125 1141.960938 389.855469 1142.941406 C 389.757812 1143.917969 389.613281 1144.890625 389.421875 1145.851562 C 389.230469 1146.816406 388.992188 1147.769531 388.707031 1148.707031 C 388.421875 1149.648438 388.09375 1150.574219 387.714844 1151.480469 C 387.339844 1152.386719 386.921875 1153.273438 386.457031 1154.140625 C 385.996094 1155.007812 385.488281 1155.851562 384.945312 1156.667969 C 384.398438 1157.484375 383.8125 1158.273438 383.191406 1159.03125 C 382.566406 1159.792969 381.90625 1160.519531 381.214844 1161.214844 C 380.519531 1161.90625 379.792969 1162.566406 379.03125 1163.191406 C 378.273438 1163.8125 377.484375 1164.398438 376.667969 1164.945312 C 375.851562 1165.488281 375.007812 1165.996094 374.140625 1166.457031 C 373.273438 1166.921875 372.386719 1167.339844 371.480469 1167.714844 C 370.574219 1168.09375 369.648438 1168.421875 368.707031 1168.707031 C 367.769531 1168.992188 366.816406 1169.230469 365.851562 1169.421875 C 364.890625 1169.613281 363.917969 1169.757812 362.941406 1169.855469 C 361.960938 1169.953125 360.984375 1170 360 1170 C 359.015625 1170 358.039062 1169.953125 357.058594 1169.855469 C 356.082031 1169.757812 355.109375 1169.613281 354.148438 1169.421875 C 353.183594 1169.230469 352.230469 1168.992188 351.292969 1168.707031 C 350.351562 1168.421875 349.425781 1168.09375 348.519531 1167.714844 C 347.613281 1167.339844 346.726562 1166.921875 345.859375 1166.457031 C 344.992188 1165.996094 344.148438 1165.488281 343.332031 1164.945312 C 342.515625 1164.398438 341.726562 1163.8125 340.96875 1163.191406 C 340.207031 1162.566406 339.480469 1161.90625 338.785156 1161.214844 C 338.09375 1160.519531 337.433594 1159.792969 336.808594 1159.03125 C 336.1875 1158.273438 335.601562 1157.484375 335.054688 1156.667969 C 334.511719 1155.851562 334.003906 1155.007812 333.542969 1154.140625 C 333.078125 1153.273438 332.660156 1152.386719 332.285156 1151.480469 C 331.90625 1150.574219 331.578125 1149.648438 331.292969 1148.707031 C 331.007812 1147.769531 330.769531 1146.816406 330.578125 1145.851562 C 330.382812 1144.890625 330.242188 1143.917969 330.144531 1142.941406 C 330.046875 1141.960938 330 1140.984375 330 1140 C 330 1139.015625 330.046875 1138.039062 330.144531 1137.058594 C 330.242188 1136.082031 330.382812 1135.109375 330.578125 1134.148438 C 330.769531 1133.183594 331.007812 1132.230469 331.292969 1131.292969 C 331.578125 1130.351562 331.90625 1129.425781 332.285156 1128.519531 C 332.660156 1127.613281 333.078125 1126.722656 333.542969 1125.859375 C 334.003906 1124.992188 334.511719 1124.148438 335.054688 1123.332031 C 335.601562 1122.515625 336.1875 1121.726562 336.808594 1120.96875 C 337.433594 1120.207031 338.09375 1119.480469 338.785156 1118.785156 C 339.480469 1118.09375 340.207031 1117.433594 340.96875 1116.808594 C 341.726562 1116.1875 342.515625 1115.601562 343.332031 1115.054688 C 344.148438 1114.507812 344.992188 1114.003906 345.859375 1113.542969 C 346.726562 1113.078125 347.613281 1112.660156 348.519531 1112.285156 C 349.425781 1111.90625 350.351562 1111.578125 351.292969 1111.292969 C 352.230469 1111.007812 353.183594 1110.769531 354.148438 1110.578125 C 355.109375 1110.382812 356.082031 1110.242188 357.058594 1110.144531 C 358.039062 1110.046875 359.015625 1110 360 1110 C 360.984375 1110 361.960938 1110.046875 362.941406 1110.144531 C 363.917969 1110.242188 364.890625 1110.382812 365.851562 1110.578125 C 366.816406 1110.769531 367.769531 1111.007812 368.707031 1111.292969 C 369.648438 1111.578125 370.574219 1111.90625 371.480469 1112.285156 C 372.386719 1112.660156 373.273438 1113.078125 374.140625 1113.542969 C 375.007812 1114.003906 375.851562 1114.507812 376.667969 1115.054688 C 377.484375 1115.601562 378.273438 1116.1875 379.03125 1116.808594 C 379.792969 1117.433594 380.519531 1118.09375 381.214844 1118.785156 C 381.90625 1119.480469 382.566406 1120.207031 383.191406 1120.96875 C 383.8125 1121.726562 384.398438 1122.515625 384.945312 1123.332031 C 385.488281 1124.148438 385.996094 1124.992188 386.457031 1125.859375 C 386.921875 1126.722656 387.339844 1127.613281 387.714844 1128.519531 C 388.09375 1129.425781 388.421875 1130.351562 388.707031 1131.292969 C 388.992188 1132.230469 389.230469 1133.183594 389.421875 1134.148438 C 389.617188 1135.109375 389.757812 1136.082031 389.855469 1137.058594 C 389.953125 1138.039062 390 1139.015625 390 1140 Z M 390 1140 " fill-opacity="1" fill-rule="nonzero"/><path fill="#000000" d="M 630 990 C 630 990.984375 629.953125 991.960938 629.855469 992.941406 C 629.757812 993.917969 629.613281 994.890625 629.421875 995.851562 C 629.230469 996.816406 628.992188 997.769531 628.707031 998.707031 C 628.421875 999.648438 628.09375 1000.574219 627.714844 1001.480469 C 627.339844 1002.386719 626.921875 1003.273438 626.457031 1004.140625 C 625.996094 1005.007812 625.488281 1005.851562 624.945312 1006.667969 C 624.398438 1007.484375 623.8125 1008.273438 623.191406 1009.03125 C 622.566406 1009.792969 621.90625 1010.519531 621.214844 1011.214844 C 620.519531 1011.90625 619.792969 1012.566406 619.03125 1013.191406 C 618.273438 1013.8125 617.484375 1014.398438 616.667969 1014.945312 C 615.851562 1015.488281 615.007812 1015.996094 614.140625 1016.457031 C 613.273438 1016.921875 612.386719 1017.339844 611.480469 1017.714844 C 610.574219 1018.09375 609.648438 1018.421875 608.707031 1018.707031 C 607.769531 1018.992188 606.816406 1019.230469 605.851562 1019.421875 C 604.890625 1019.613281 603.917969 1019.757812 602.941406 1019.855469 C 601.960938 1019.953125 600.984375 1020 600 1020 C 599.015625 1020 598.039062 1019.953125 597.058594 1019.855469 C 596.082031 1019.757812 595.109375 1019.613281 594.148438 1019.421875 C 593.183594 1019.230469 592.230469 1018.992188 591.292969 1018.707031 C 590.351562 1018.421875 589.425781 1018.09375 588.519531 1017.714844 C 587.613281 1017.339844 586.726562 1016.921875 585.859375 1016.457031 C 584.992188 1015.996094 584.148438 1015.488281 583.332031 1014.945312 C 582.515625 1014.398438 581.726562 1013.8125 580.96875 1013.191406 C 580.207031 1012.566406 579.480469 1011.90625 578.785156 1011.214844 C 578.09375 1010.519531 577.433594 1009.792969 576.808594 1009.03125 C 576.1875 1008.273438 575.601562 1007.484375 575.054688 1006.667969 C 574.511719 1005.851562 574.003906 1005.007812 573.542969 1004.140625 C 573.078125 1003.273438 572.660156 1002.386719 572.285156 1001.480469 C 571.90625 1000.574219 571.578125 999.648438 571.292969 998.707031 C 571.007812 997.769531 570.769531 996.816406 570.578125 995.851562 C 570.386719 994.890625 570.242188 993.917969 570.144531 992.941406 C 570.046875 991.960938 570 990.984375 570 990 C 570 989.015625 570.046875 988.039062 570.144531 987.058594 C 570.242188 986.082031 570.386719 985.109375 570.578125 984.148438 C 570.769531 983.183594 571.007812 982.230469 571.292969 981.292969 C 571.578125 980.351562 571.90625 979.425781 572.285156 978.519531 C 572.660156 977.613281 573.078125 976.722656 573.542969 975.859375 C 574.003906 974.992188 574.511719 974.148438 575.054688 973.332031 C 575.601562 972.515625 576.1875 971.726562 576.808594 970.96875 C 577.433594 970.207031 578.09375 969.480469 578.785156 968.785156 C 579.480469 968.09375 580.207031 967.433594 580.96875 966.808594 C 581.726562 966.1875 582.515625 965.601562 583.332031 965.054688 C 584.148438 964.511719 584.992188 964.003906 585.859375 963.542969 C 586.726562 963.078125 587.613281 962.660156 588.519531 962.285156 C 589.425781 961.90625 590.351562 961.578125 591.292969 961.292969 C 592.230469 961.007812 593.183594 960.769531 594.148438 960.578125 C 595.109375 960.382812 596.082031 960.242188 597.058594 960.144531 C 598.039062 960.046875 599.015625 960 600 960 C 600.984375 960 601.960938 960.046875 602.941406 960.144531 C 603.917969 960.242188 604.890625 960.386719 605.851562 960.578125 C 606.816406 960.769531 607.769531 961.007812 608.707031 961.292969 C 609.648438 961.578125 610.574219 961.90625 611.480469 962.285156 C 612.386719 962.660156 613.273438 963.078125 614.140625 963.542969 C 615.007812 964.003906 615.851562 964.511719 616.667969 965.054688 C 617.484375 965.601562 618.273438 966.1875 619.03125 966.808594 C 619.792969 967.433594 620.519531 968.09375 621.214844 968.785156 C 621.90625 969.480469 622.566406 970.207031 623.191406 970.96875 C 623.8125 971.726562 624.398438 972.515625 624.945312 973.332031 C 625.488281 974.148438 625.996094 974.992188 626.457031 975.859375 C 626.921875 976.722656 627.339844 977.613281 627.714844 978.519531 C 628.09375 979.425781 628.421875 980.351562 628.707031 981.292969 C 628.992188 982.230469 629.230469 983.183594 629.421875 984.148438 C 629.613281 985.109375 629.757812 986.082031 629.855469 987.058594 C 629.953125 988.039062 630 989.015625 630 990 Z M 630 990 " fill-opacity="1" fill-rule="nonzero"/><path fill="#000000" d="M 750 780 C 750 780.984375 749.953125 781.960938 749.855469 782.941406 C 749.757812 783.917969 749.617188 784.890625 749.421875 785.851562 C 749.230469 786.816406 748.992188 787.769531 748.707031 788.707031 C 748.421875 789.648438 748.09375 790.574219 747.714844 791.480469 C 747.339844 792.386719 746.921875 793.273438 746.457031 794.140625 C 745.996094 795.007812 745.488281 795.851562 744.945312 796.667969 C 744.398438 797.484375 743.8125 798.273438 743.191406 799.03125 C 742.566406 799.792969 741.90625 800.519531 741.214844 801.214844 C 740.519531 801.90625 739.792969 802.566406 739.03125 803.191406 C 738.273438 803.8125 737.484375 804.398438 736.667969 804.945312 C 735.851562 805.488281 735.007812 805.996094 734.140625 806.457031 C 733.273438 806.921875 732.386719 807.339844 731.480469 807.714844 C 730.574219 808.09375 729.648438 808.421875 728.707031 808.707031 C 727.769531 808.992188 726.816406 809.230469 725.851562 809.421875 C 724.890625 809.613281 723.917969 809.757812 722.941406 809.855469 C 721.960938 809.953125 720.984375 810 720 810 C 719.015625 810 718.039062 809.953125 717.058594 809.855469 C 716.082031 809.757812 715.109375 809.613281 714.148438 809.421875 C 713.183594 809.230469 712.230469 808.992188 711.292969 808.707031 C 710.351562 808.421875 709.425781 808.09375 708.519531 807.714844 C 707.613281 807.339844 706.722656 806.921875 705.859375 806.457031 C 704.992188 805.996094 704.148438 805.488281 703.332031 804.945312 C 702.515625 804.398438 701.726562 803.8125 700.96875 803.191406 C 700.207031 802.566406 699.480469 801.90625 698.785156 801.214844 C 698.09375 800.519531 697.433594 799.792969 696.808594 799.03125 C 696.1875 798.273438 695.601562 797.484375 695.054688 796.667969 C 694.511719 795.851562 694.003906 795.007812 693.542969 794.140625 C 693.078125 793.273438 692.660156 792.386719 692.285156 791.480469 C 691.90625 790.574219 691.578125 789.648438 691.292969 788.707031 C 691.007812 787.769531 690.769531 786.816406 690.578125 785.851562 C 690.386719 784.890625 690.242188 783.917969 690.144531 782.941406 C 690.046875 781.960938 690 780.984375 690 780 C 690 779.015625 690.046875 778.039062 690.144531 777.058594 C 690.242188 776.082031 690.386719 775.109375 690.578125 774.148438 C 690.769531 773.183594 691.007812 772.230469 691.292969 771.292969 C 691.578125 770.351562 691.90625 769.425781 692.285156 768.519531 C 692.660156 767.613281 693.078125 766.722656 693.542969 765.859375 C 694.003906 764.992188 694.511719 764.148438 695.054688 763.332031 C 695.601562 762.515625 696.1875 761.726562 696.808594 760.96875 C 697.433594 760.207031 698.09375 759.480469 698.785156 758.785156 C 699.480469 758.09375 700.207031 757.433594 700.96875 756.808594 C 701.726562 756.1875 702.515625 755.601562 703.332031 755.054688 C 704.148438 754.511719 704.992188 754.003906 705.859375 753.542969 C 706.726562 753.078125 707.613281 752.660156 708.519531 752.285156 C 709.425781 751.90625 710.351562 751.578125 711.292969 751.292969 C 712.230469 751.007812 713.183594 750.769531 714.148438 750.578125 C 715.109375 750.386719 716.082031 750.242188 717.058594 750.144531 C 718.039062 750.046875 719.015625 750 720 750 C 720.984375 750 721.960938 750.046875 722.941406 750.144531 C 723.917969 750.242188 724.890625 750.386719 725.851562 750.578125 C 726.816406 750.769531 727.769531 751.007812 728.707031 751.292969 C 729.648438 751.578125 730.574219 751.90625 731.480469 752.285156 C 732.386719 752.660156 733.273438 753.078125 734.140625 753.542969 C 735.007812 754.003906 735.851562 754.511719 736.667969 755.054688 C 737.484375 755.601562 738.273438 756.1875 739.03125 756.808594 C 739.792969 757.433594 740.519531 758.09375 741.214844 758.785156 C 741.90625 759.480469 742.566406 760.207031 743.191406 760.96875 C 743.8125 761.726562 744.398438 762.515625 744.945312 763.332031 C 745.488281 764.148438 745.996094 764.992188 746.457031 765.859375 C 746.921875 766.722656 747.339844 767.613281 747.714844 768.519531 C 748.09375 769.425781 748.421875 770.351562 748.707031 771.292969 C 748.992188 772.230469 749.230469 773.183594 749.421875 774.148438 C 749.617188 775.109375 749.757812 776.082031 749.855469 777.058594 C 749.953125 778.039062 750 779.015625 750 780 Z M 750 780 " fill-opacity="1" fill-rule="nonzero"/><path fill="#000000" d="M 1170 1080 C 1170 1080.984375 1169.953125 1081.960938 1169.855469 1082.941406 C 1169.757812 1083.917969 1169.613281 1084.890625 1169.421875 1085.851562 C 1169.230469 1086.816406 1168.992188 1087.769531 1168.707031 1088.707031 C 1168.421875 1089.648438 1168.09375 1090.574219 1167.714844 1091.480469 C 1167.339844 1092.386719 1166.921875 1093.273438 1166.457031 1094.140625 C 1165.996094 1095.007812 1165.488281 1095.851562 1164.945312 1096.667969 C 1164.398438 1097.484375 1163.8125 1098.273438 1163.191406 1099.03125 C 1162.566406 1099.792969 1161.90625 1100.519531 1161.214844 1101.214844 C 1160.519531 1101.90625 1159.792969 1102.566406 1159.03125 1103.191406 C 1158.273438 1103.8125 1157.484375 1104.398438 1156.667969 1104.945312 C 1155.851562 1105.488281 1155.007812 1105.996094 1154.140625 1106.457031 C 1153.273438 1106.921875 1152.386719 1107.339844 1151.480469 1107.714844 C 1150.574219 1108.09375 1149.648438 1108.421875 1148.707031 1108.707031 C 1147.769531 1108.992188 1146.816406 1109.230469 1145.851562 1109.421875 C 1144.890625 1109.613281 1143.917969 1109.757812 1142.941406 1109.855469 C 1141.960938 1109.953125 1140.984375 1110 1140 1110 C 1139.015625 1110 1138.039062 1109.953125 1137.058594 1109.855469 C 1136.082031 1109.757812 1135.109375 1109.613281 1134.148438 1109.421875 C 1133.183594 1109.230469 1132.230469 1108.992188 1131.292969 1108.707031 C 1130.351562 1108.421875 1129.425781 1108.09375 1128.519531 1107.714844 C 1127.613281 1107.339844 1126.722656 1106.921875 1125.859375 1106.457031 C 1124.992188 1105.996094 1124.148438 1105.488281 1123.332031 1104.945312 C 1122.515625 1104.398438 1121.726562 1103.8125 1120.96875 1103.191406 C 1120.207031 1102.566406 1119.480469 1101.90625 1118.785156 1101.214844 C 1118.09375 1100.519531 1117.433594 1099.792969 1116.808594 1099.03125 C 1116.1875 1098.273438 1115.601562 1097.484375 1115.054688 1096.667969 C 1114.507812 1095.851562 1114.003906 1095.007812 1113.542969 1094.140625 C 1113.078125 1093.273438 1112.660156 1092.386719 1112.285156 1091.480469 C 1111.90625 1090.574219 1111.578125 1089.648438 1111.292969 1088.707031 C 1111.007812 1087.769531 1110.769531 1086.816406 1110.578125 1085.851562 C 1110.382812 1084.890625 1110.242188 1083.917969 1110.144531 1082.941406 C 1110.046875 1081.960938 1110 1080.984375 1110 1080 C 1110 1079.015625 1110.046875 1078.039062 1110.144531 1077.058594 C 1110.242188 1076.082031 1110.382812 1075.109375 1110.578125 1074.148438 C 1110.769531 1073.183594 1111.007812 1072.230469 1111.292969 1071.292969 C 1111.578125 1070.351562 1111.90625 1069.425781 1112.285156 1068.519531 C 1112.660156 1067.613281 1113.078125 1066.722656 1113.542969 1065.859375 C 1114.003906 1064.992188 1114.507812 1064.148438 1115.054688 1063.332031 C 1115.601562 1062.515625 1116.1875 1061.726562 1116.808594 1060.96875 C 1117.433594 1060.207031 1118.09375 1059.480469 1118.785156 1058.785156 C 1119.480469 1058.09375 1120.207031 1057.433594 1120.96875 1056.808594 C 1121.726562 1056.1875 1122.515625 1055.601562 1123.332031 1055.054688 C 1124.148438 1054.511719 1124.992188 1054.003906 1125.859375 1053.542969 C 1126.722656 1053.078125 1127.613281 1052.660156 1128.519531 1052.285156 C 1129.425781 1051.90625 1130.351562 1051.578125 1131.292969 1051.292969 C 1132.230469 1051.007812 1133.183594 1050.769531 1134.148438 1050.578125 C 1135.109375 1050.382812 1136.082031 1050.242188 1137.058594 1050.144531 C 1138.039062 1050.046875 1139.015625 1050 1140 1050 C 1140.984375 1050 1141.960938 1050.046875 1142.941406 1050.144531 C 1143.917969 1050.242188 1144.890625 1050.382812 1145.851562 1050.578125 C 1146.816406 1050.769531 1147.769531 1051.007812 1148.707031 1051.292969 C 1149.648438 1051.578125 1150.574219 1051.90625 1151.480469 1052.285156 C 1152.386719 1052.660156 1153.273438 1053.078125 1154.140625 1053.542969 C 1155.007812 1054.003906 1155.851562 1054.511719 1156.667969 1055.054688 C 1157.484375 1055.601562 1158.273438 1056.1875 1159.03125 1056.808594 C 1159.792969 1057.433594 1160.519531 1058.09375 1161.214844 1058.785156 C 1161.90625 1059.480469 1162.566406 1060.207031 1163.191406 1060.96875 C 1163.8125 1061.726562 1164.398438 1062.515625 1164.945312 1063.332031 C 1165.488281 1064.148438 1165.996094 1064.992188 1166.457031 1065.859375 C 1166.921875 1066.722656 1167.339844 1067.613281 1167.714844 1068.519531 C 1168.09375 1069.425781 1168.421875 1070.351562 1168.707031 1071.292969 C 1168.992188 1072.230469 1169.230469 1073.183594 1169.421875 1074.148438 C 1169.613281 1075.109375 1169.757812 1076.082031 1169.855469 1077.058594 C 1169.953125 1078.039062 1170 1079.015625 1170 1080 Z M 1170 1080 " fill-opacity="1" fill-rule="nonzero"/><path fill="#000000" d="M 1050 780 C 1050 780.984375 1049.953125 781.960938 1049.855469 782.941406 C 1049.757812 783.917969 1049.613281 784.890625 1049.421875 785.851562 C 1049.230469 786.816406 1048.992188 787.769531 1048.707031 788.707031 C 1048.421875 789.648438 1048.09375 790.574219 1047.714844 791.480469 C 1047.339844 792.386719 1046.921875 793.273438 1046.457031 794.140625 C 1045.996094 795.007812 1045.488281 795.851562 1044.945312 796.667969 C 1044.398438 797.484375 1043.8125 798.273438 1043.191406 799.03125 C 1042.566406 799.792969 1041.90625 800.519531 1041.214844 801.214844 C 1040.519531 801.90625 1039.792969 802.566406 1039.03125 803.191406 C 1038.273438 803.8125 1037.484375 804.398438 1036.667969 804.945312 C 1035.851562 805.488281 1035.007812 805.996094 1034.140625 806.457031 C 1033.273438 806.921875 1032.386719 807.339844 1031.480469 807.714844 C 1030.574219 808.09375 1029.648438 808.421875 1028.707031 808.707031 C 1027.769531 808.992188 1026.816406 809.230469 1025.851562 809.421875 C 1024.890625 809.613281 1023.917969 809.757812 1022.941406 809.855469 C 1021.960938 809.953125 1020.984375 810 1020 810 C 1019.015625 810 1018.039062 809.953125 1017.058594 809.855469 C 1016.082031 809.757812 1015.109375 809.613281 1014.148438 809.421875 C 1013.183594 809.230469 1012.230469 808.992188 1011.292969 808.707031 C 1010.351562 808.421875 1009.425781 808.09375 1008.519531 807.714844 C 1007.613281 807.339844 1006.722656 806.921875 1005.859375 806.457031 C 1004.992188 805.996094 1004.148438 805.488281 1003.332031 804.945312 C 1002.515625 804.398438 1001.726562 803.8125 1000.96875 803.191406 C 1000.207031 802.566406 999.480469 801.90625 998.785156 801.214844 C 998.09375 800.519531 997.433594 799.792969 996.808594 799.03125 C 996.1875 798.273438 995.601562 797.484375 995.054688 796.667969 C 994.511719 795.851562 994.003906 795.007812 993.542969 794.140625 C 993.078125 793.273438 992.660156 792.386719 992.285156 791.480469 C 991.90625 790.574219 991.578125 789.648438 991.292969 788.707031 C 991.007812 787.769531 990.769531 786.816406 990.578125 785.851562 C 990.382812 784.890625 990.242188 783.917969 990.144531 782.941406 C 990.046875 781.960938 990 780.984375 990 780 C 990 779.015625 990.046875 778.039062 990.144531 777.058594 C 990.242188 776.082031 990.382812 775.109375 990.578125 774.148438 C 990.769531 773.183594 991.007812 772.230469 991.292969 771.292969 C 991.578125 770.351562 991.90625 769.425781 992.285156 768.519531 C 992.660156 767.613281 993.078125 766.722656 993.542969 765.859375 C 994.003906 764.992188 994.511719 764.148438 995.054688 763.332031 C 995.601562 762.515625 996.1875 761.726562 996.808594 760.96875 C 997.433594 760.207031 998.09375 759.480469 998.785156 758.785156 C 999.480469 758.09375 1000.207031 757.433594 1000.96875 756.808594 C 1001.726562 756.1875 1002.515625 755.601562 1003.332031 755.054688 C 1004.148438 754.511719 1004.992188 754.003906 1005.859375 753.542969 C 1006.722656 753.078125 1007.613281 752.660156 1008.519531 752.285156 C 1009.425781 751.90625 1010.351562 751.578125 1011.292969 751.292969 C 1012.230469 751.007812 1013.183594 750.769531 1014.148438 750.578125 C 1015.109375 750.386719 1016.082031 750.242188 1017.058594 750.144531 C 1018.039062 750.046875 1019.015625 750 1020 750 C 1020.984375 750 1021.960938 750.046875 1022.941406 750.144531 C 1023.917969 750.242188 1024.890625 750.386719 1025.851562 750.578125 C 1026.816406 750.769531 1027.769531 751.007812 1028.707031 751.292969 C 1029.648438 751.578125 1030.574219 751.90625 1031.480469 752.285156 C 1032.386719 752.660156 1033.273438 753.078125 1034.140625 753.542969 C 1035.007812 754.003906 1035.851562 754.511719 1036.667969 755.054688 C 1037.484375 755.601562 1038.273438 756.1875 1039.03125 756.808594 C 1039.792969 757.433594 1040.519531 758.09375 1041.214844 758.785156 C 1041.90625 759.480469 1042.566406 760.207031 1043.191406 760.96875 C 1043.8125 761.726562 1044.398438 762.515625 1044.945312 763.332031 C 1045.488281 764.148438 1045.996094 764.992188 1046.457031 765.859375 C 1046.921875 766.722656 1047.339844 767.613281 1047.714844 768.519531 C 1048.09375 769.425781 1048.421875 770.351562 1048.707031 771.292969 C 1048.992188 772.230469 1049.230469 773.183594 1049.421875 774.148438 C 1049.613281 775.109375 1049.757812 776.082031 1049.855469 777.058594 C 1049.953125 778.039062 1050 779.015625 1050 780 Z M 1050 780 " fill-opacity="1" fill-rule="nonzero"/><path fill="#000000" d="M 900 900 C 900 900.984375 899.953125 901.960938 899.855469 902.941406 C 899.757812 903.917969 899.613281 904.890625 899.421875 905.851562 C 899.230469 906.816406 898.992188 907.769531 898.707031 908.707031 C 898.421875 909.648438 898.09375 910.574219 897.714844 911.480469 C 897.339844 912.386719 896.921875 913.273438 896.457031 914.140625 C 895.996094 915.007812 895.488281 915.851562 894.945312 916.667969 C 894.398438 917.484375 893.8125 918.273438 893.191406 919.03125 C 892.566406 919.792969 891.90625 920.519531 891.214844 921.214844 C 890.519531 921.90625 889.792969 922.566406 889.03125 923.191406 C 888.273438 923.8125 887.484375 924.398438 886.667969 924.945312 C 885.851562 925.488281 885.007812 925.996094 884.140625 926.457031 C 883.273438 926.921875 882.386719 927.339844 881.480469 927.714844 C 880.574219 928.09375 879.648438 928.421875 878.707031 928.707031 C 877.769531 928.992188 876.816406 929.230469 875.851562 929.421875 C 874.890625 929.613281 873.917969 929.757812 872.941406 929.855469 C 871.960938 929.953125 870.984375 930 870 930 C 869.015625 930 868.039062 929.953125 867.058594 929.855469 C 866.082031 929.757812 865.109375 929.613281 864.148438 929.421875 C 863.183594 929.230469 862.230469 928.992188 861.292969 928.707031 C 860.351562 928.421875 859.425781 928.09375 858.519531 927.714844 C 857.613281 927.339844 856.722656 926.921875 855.859375 926.457031 C 854.992188 925.996094 854.148438 925.488281 853.332031 924.945312 C 852.515625 924.398438 851.726562 923.8125 850.96875 923.191406 C 850.207031 922.566406 849.480469 921.90625 848.785156 921.214844 C 848.09375 920.519531 847.433594 919.792969 846.808594 919.03125 C 846.1875 918.273438 845.601562 917.484375 845.054688 916.667969 C 844.511719 915.851562 844.003906 915.007812 843.542969 914.140625 C 843.078125 913.273438 842.660156 912.386719 842.285156 911.480469 C 841.90625 910.574219 841.578125 909.648438 841.292969 908.707031 C 841.007812 907.769531 840.769531 906.816406 840.578125 905.851562 C 840.382812 904.890625 840.242188 903.917969 840.144531 902.941406 C 840.046875 901.960938 840 900.984375 840 900 C 840 899.015625 840.046875 898.039062 840.144531 897.058594 C 840.242188 896.082031 840.382812 895.109375 840.578125 894.148438 C 840.769531 893.183594 841.007812 892.230469 841.292969 891.292969 C 841.578125 890.351562 841.90625 889.425781 842.285156 888.519531 C 842.660156 887.613281 843.078125 886.722656 843.542969 885.859375 C 844.003906 884.992188 844.511719 884.148438 845.054688 883.332031 C 845.601562 882.515625 846.1875 881.726562 846.808594 880.96875 C 847.433594 880.207031 848.09375 879.480469 848.785156 878.785156 C 849.480469 878.09375 850.207031 877.433594 850.96875 876.808594 C 851.726562 876.1875 852.515625 875.601562 853.332031 875.054688 C 854.148438 874.511719 854.992188 874.003906 855.859375 873.542969 C 856.722656 873.078125 857.613281 872.660156 858.519531 872.285156 C 859.425781 871.90625 860.351562 871.578125 861.292969 871.292969 C 862.230469 871.007812 863.183594 870.769531 864.148438 870.578125 C 865.109375 870.386719 866.082031 870.242188 867.058594 870.144531 C 868.039062 870.046875 869.015625 870 870 870 C 870.984375 870 871.960938 870.046875 872.941406 870.144531 C 873.917969 870.242188 874.890625 870.386719 875.851562 870.578125 C 876.816406 870.769531 877.769531 871.007812 878.707031 871.292969 C 879.648438 871.578125 880.574219 871.90625 881.480469 872.285156 C 882.386719 872.660156 883.273438 873.078125 884.140625 873.542969 C 885.007812 874.003906 885.851562 874.511719 886.667969 875.054688 C 887.484375 875.601562 888.273438 876.1875 889.03125 876.808594 C 889.792969 877.433594 890.519531 878.09375 891.214844 878.785156 C 891.90625 879.480469 892.566406 880.207031 893.191406 880.96875 C 893.8125 881.726562 894.398438 882.515625 894.945312 883.332031 C 895.488281 884.148438 895.996094 884.992188 896.457031 885.859375 C 896.921875 886.722656 897.339844 887.613281 897.714844 888.519531 C 898.09375 889.425781 898.421875 890.351562 898.707031 891.292969 C 898.992188 892.230469 899.230469 893.183594 899.421875 894.148438 C 899.613281 895.109375 899.757812 896.082031 899.855469 897.058594 C 899.953125 898.039062 900 899.015625 900 900 Z M 900 900 " fill-opacity="1" fill-rule="nonzero"/><path fill="#000000" d="M 420 360 C 420 360.984375 419.953125 361.960938 419.855469 362.941406 C 419.757812 363.917969 419.613281 364.890625 419.421875 365.851562 C 419.230469 366.816406 418.992188 367.769531 418.707031 368.707031 C 418.421875 369.648438 418.09375 370.574219 417.714844 371.480469 C 417.339844 372.386719 416.921875 373.273438 416.457031 374.140625 C 415.996094 375.007812 415.488281 375.851562 414.945312 376.667969 C 414.398438 377.484375 413.8125 378.273438 413.191406 379.03125 C 412.566406 379.792969 411.90625 380.519531 411.214844 381.214844 C 410.519531 381.90625 409.792969 382.566406 409.03125 383.191406 C 408.273438 383.8125 407.484375 384.398438 406.667969 384.945312 C 405.851562 385.488281 405.007812 385.996094 404.140625 386.457031 C 403.273438 386.921875 402.386719 387.339844 401.480469 387.714844 C 400.574219 388.09375 399.648438 388.421875 398.707031 388.707031 C 397.769531 388.992188 396.816406 389.230469 395.851562 389.421875 C 394.890625 389.613281 393.917969 389.757812 392.941406 389.855469 C 391.960938 389.953125 390.984375 390 390 390 C 389.015625 390 388.039062 389.953125 387.058594 389.855469 C 386.082031 389.757812 385.109375 389.613281 384.148438 389.421875 C 383.183594 389.230469 382.230469 388.992188 381.292969 388.707031 C 380.351562 388.421875 379.425781 388.09375 378.519531 387.714844 C 377.613281 387.339844 376.722656 386.921875 375.859375 386.457031 C 374.992188 385.996094 374.148438 385.488281 373.332031 384.945312 C 372.515625 384.398438 371.726562 383.8125 370.96875 383.191406 C 370.207031 382.566406 369.480469 381.90625 368.785156 381.214844 C 368.09375 380.519531 367.433594 379.792969 366.808594 379.03125 C 366.1875 378.273438 365.601562 377.484375 365.054688 376.667969 C 364.511719 375.851562 364.003906 375.007812 363.542969 374.140625 C 363.078125 373.273438 362.660156 372.386719 362.285156 371.480469 C 361.90625 370.574219 361.578125 369.648438 361.292969 368.707031 C 361.007812 367.769531 360.769531 366.816406 360.578125 365.851562 C 360.386719 364.890625 360.242188 363.917969 360.144531 362.941406 C 360.046875 361.960938 360 360.984375 360 360 C 360 359.015625 360.046875 358.039062 360.144531 357.058594 C 360.242188 356.082031 360.386719 355.109375 360.578125 354.148438 C 360.769531 353.183594 361.007812 352.230469 361.292969 351.292969 C 361.578125 350.351562 361.90625 349.425781 362.285156 348.519531 C 362.660156 347.613281 363.078125 346.726562 363.542969 345.859375 C 364.003906 344.992188 364.511719 344.148438 365.054688 343.332031 C 365.601562 342.515625 366.1875 341.726562 366.808594 340.96875 C 367.433594 340.207031 368.09375 339.480469 368.785156 338.785156 C 369.480469 338.09375 370.207031 337.433594 370.96875 336.808594 C 371.726562 336.1875 372.515625 335.601562 373.332031 335.054688 C 374.148438 334.511719 374.992188 334.003906 375.859375 333.542969 C 376.722656 333.078125 377.613281 332.660156 378.519531 332.285156 C 379.425781 331.90625 380.351562 331.578125 381.292969 331.292969 C 382.230469 331.007812 383.183594 330.769531 384.148438 330.578125 C 385.109375 330.382812 386.082031 330.242188 387.058594 330.144531 C 388.039062 330.046875 389.015625 330 390 330 C 390.984375 330 391.960938 330.046875 392.941406 330.144531 C 393.917969 330.242188 394.890625 330.382812 395.851562 330.578125 C 396.816406 330.769531 397.769531 331.007812 398.707031 331.292969 C 399.648438 331.578125 400.574219 331.90625 401.480469 332.285156 C 402.386719 332.660156 403.273438 333.078125 404.140625 333.542969 C 405.007812 334.003906 405.851562 334.511719 406.667969 335.054688 C 407.484375 335.601562 408.273438 336.1875 409.03125 336.808594 C 409.792969 337.433594 410.519531 338.09375 411.214844 338.785156 C 411.90625 339.480469 412.566406 340.207031 413.191406 340.96875 C 413.8125 341.726562 414.398438 342.515625 414.945312 343.332031 C 415.488281 344.148438 415.996094 344.992188 416.457031 345.859375 C 416.921875 346.722656 417.339844 347.613281 417.714844 348.519531 C 418.09375 349.425781 418.421875 350.351562 418.707031 351.292969 C 418.992188 352.230469 419.230469 353.183594 419.421875 354.148438 C 419.613281 355.109375 419.757812 356.082031 419.855469 357.058594 C 419.953125 358.039062 420 359.015625 420 360 Z M 420 360 " fill-opacity="1" fill-rule="nonzero"/><path fill="#000000" d="M 690 480 C 690 480.984375 689.953125 481.960938 689.855469 482.941406 C 689.757812 483.917969 689.613281 484.890625 689.421875 485.851562 C 689.230469 486.816406 688.992188 487.769531 688.707031 488.707031 C 688.421875 489.648438 688.09375 490.574219 687.714844 491.480469 C 687.339844 492.386719 686.921875 493.273438 686.457031 494.140625 C 685.996094 495.007812 685.488281 495.851562 684.945312 496.667969 C 684.398438 497.484375 683.8125 498.273438 683.191406 499.03125 C 682.566406 499.792969 681.90625 500.519531 681.214844 501.214844 C 680.519531 501.90625 679.792969 502.566406 679.03125 503.191406 C 678.273438 503.8125 677.484375 504.398438 676.667969 504.945312 C 675.851562 505.488281 675.007812 505.996094 674.140625 506.457031 C 673.273438 506.921875 672.386719 507.339844 671.480469 507.714844 C 670.574219 508.09375 669.648438 508.421875 668.707031 508.707031 C 667.769531 508.992188 666.816406 509.230469 665.851562 509.421875 C 664.890625 509.613281 663.917969 509.757812 662.941406 509.855469 C 661.960938 509.953125 660.984375 510 660 510 C 659.015625 510 658.039062 509.953125 657.058594 509.855469 C 656.082031 509.757812 655.109375 509.613281 654.148438 509.421875 C 653.183594 509.230469 652.230469 508.992188 651.292969 508.707031 C 650.351562 508.421875 649.425781 508.09375 648.519531 507.714844 C 647.613281 507.339844 646.722656 506.921875 645.859375 506.457031 C 644.992188 505.996094 644.148438 505.488281 643.332031 504.945312 C 642.515625 504.398438 641.726562 503.8125 640.96875 503.191406 C 640.207031 502.566406 639.480469 501.90625 638.785156 501.214844 C 638.09375 500.519531 637.433594 499.792969 636.808594 499.03125 C 636.1875 498.273438 635.601562 497.484375 635.054688 496.667969 C 634.511719 495.851562 634.003906 495.007812 633.542969 494.140625 C 633.078125 493.273438 632.660156 492.386719 632.285156 491.480469 C 631.90625 490.574219 631.578125 489.648438 631.292969 488.707031 C 631.007812 487.769531 630.769531 486.816406 630.578125 485.851562 C 630.382812 484.890625 630.242188 483.917969 630.144531 482.941406 C 630.046875 481.960938 630 480.984375 630 480 C 630 479.015625 630.046875 478.039062 630.144531 477.058594 C 630.242188 476.082031 630.382812 475.109375 630.578125 474.148438 C 630.769531 473.183594 631.007812 472.230469 631.292969 471.292969 C 631.578125 470.351562 631.90625 469.425781 632.285156 468.519531 C 632.660156 467.613281 633.078125 466.722656 633.542969 465.859375 C 634.003906 464.992188 634.511719 464.148438 635.054688 463.332031 C 635.601562 462.515625 636.1875 461.726562 636.808594 460.96875 C 637.433594 460.207031 638.09375 459.480469 638.785156 458.785156 C 639.480469 458.09375 640.207031 457.433594 640.96875 456.808594 C 641.726562 456.1875 642.515625 455.601562 643.332031 455.054688 C 644.148438 454.511719 644.992188 454.003906 645.859375 453.542969 C 646.722656 453.078125 647.613281 452.660156 648.519531 452.285156 C 649.425781 451.90625 650.351562 451.578125 651.292969 451.292969 C 652.230469 451.007812 653.183594 450.769531 654.148438 450.578125 C 655.109375 450.382812 656.082031 450.242188 657.058594 450.144531 C 658.039062 450.046875 659.015625 450 660 450 C 660.984375 450 661.960938 450.046875 662.941406 450.144531 C 663.917969 450.242188 664.890625 450.382812 665.851562 450.578125 C 666.816406 450.769531 667.769531 451.007812 668.707031 451.292969 C 669.648438 451.578125 670.574219 451.90625 671.480469 452.285156 C 672.386719 452.660156 673.273438 453.078125 674.140625 453.542969 C 675.007812 454.003906 675.851562 454.511719 676.667969 455.054688 C 677.484375 455.601562 678.273438 456.1875 679.03125 456.808594 C 679.792969 457.433594 680.519531 458.09375 681.214844 458.785156 C 681.90625 459.480469 682.566406 460.207031 683.191406 460.96875 C 683.8125 461.726562 684.398438 462.515625 684.945312 463.332031 C 685.488281 464.148438 685.996094 464.992188 686.457031 465.859375 C 686.921875 466.722656 687.339844 467.613281 687.714844 468.519531 C 688.09375 469.425781 688.421875 470.351562 688.707031 471.292969 C 688.992188 472.230469 689.230469 473.183594 689.421875 474.148438 C 689.613281 475.109375 689.757812 476.082031 689.855469 477.058594 C 689.953125 478.039062 690 479.015625 690 480 Z M 690 480 " fill-opacity="1" fill-rule="nonzero"/><path fill="#000000" d="M 960 300 C 960 300.984375 959.953125 301.960938 959.855469 302.941406 C 959.757812 303.917969 959.613281 304.890625 959.421875 305.851562 C 959.230469 306.816406 958.992188 307.769531 958.707031 308.707031 C 958.421875 309.648438 958.09375 310.574219 957.714844 311.480469 C 957.339844 312.386719 956.921875 313.273438 956.457031 314.140625 C 955.996094 315.007812 955.488281 315.851562 954.945312 316.667969 C 954.398438 317.484375 953.8125 318.273438 953.191406 319.03125 C 952.566406 319.792969 951.90625 320.519531 951.214844 321.214844 C 950.519531 321.90625 949.792969 322.566406 949.03125 323.191406 C 948.273438 323.8125 947.484375 324.398438 946.667969 324.945312 C 945.851562 325.488281 945.007812 325.996094 944.140625 326.457031 C 943.273438 326.921875 942.386719 327.339844 941.480469 327.714844 C 940.574219 328.09375 939.648438 328.421875 938.707031 328.707031 C 937.769531 328.992188 936.816406 329.230469 935.851562 329.421875 C 934.890625 329.613281 933.917969 329.757812 932.941406 329.855469 C 931.960938 329.953125 930.984375 330 930 330 C 929.015625 330 928.039062 329.953125 927.058594 329.855469 C 926.082031 329.757812 925.109375 329.613281 924.148438 329.421875 C 923.183594 329.230469 922.230469 328.992188 921.292969 328.707031 C 920.351562 328.421875 919.425781 328.09375 918.519531 327.714844 C 917.613281 327.339844 916.722656 326.921875 915.859375 326.457031 C 914.992188 325.996094 914.148438 325.488281 913.332031 324.945312 C 912.515625 324.398438 911.726562 323.8125 910.96875 323.191406 C 910.207031 322.566406 909.480469 321.90625 908.785156 321.214844 C 908.09375 320.519531 907.433594 319.792969 906.808594 319.03125 C 906.1875 318.273438 905.601562 317.484375 905.054688 316.667969 C 904.511719 315.851562 904.003906 315.007812 903.542969 314.140625 C 903.078125 313.273438 902.660156 312.386719 902.285156 311.480469 C 901.90625 310.574219 901.578125 309.648438 901.292969 308.707031 C 901.007812 307.769531 900.769531 306.816406 900.578125 305.851562 C 900.382812 304.890625 900.242188 303.917969 900.144531 302.941406 C 900.046875 301.960938 900 300.984375 900 300 C 900 299.015625 900.046875 298.039062 900.144531 297.058594 C 900.242188 296.082031 900.382812 295.109375 900.578125 294.148438 C 900.769531 293.183594 901.007812 292.230469 901.292969 291.292969 C 901.578125 290.351562 901.90625 289.425781 902.285156 288.519531 C 902.660156 287.613281 903.078125 286.726562 903.542969 285.859375 C 904.003906 284.992188 904.511719 284.148438 905.054688 283.332031 C 905.601562 282.515625 906.1875 281.726562 906.808594 280.96875 C 907.433594 280.207031 908.09375 279.480469 908.785156 278.785156 C 909.480469 278.09375 910.207031 277.433594 910.96875 276.808594 C 911.726562 276.1875 912.515625 275.601562 913.332031 275.054688 C 914.148438 274.511719 914.992188 274.003906 915.859375 273.542969 C 916.722656 273.078125 917.613281 272.660156 918.519531 272.285156 C 919.425781 271.90625 920.351562 271.578125 921.292969 271.292969 C 922.230469 271.007812 923.183594 270.769531 924.148438 270.578125 C 925.109375 270.382812 926.082031 270.242188 927.058594 270.144531 C 928.039062 270.046875 929.015625 270 930 270 C 930.984375 270 931.960938 270.046875 932.941406 270.144531 C 933.917969 270.242188 934.890625 270.382812 935.851562 270.578125 C 936.816406 270.769531 937.769531 271.007812 938.707031 271.292969 C 939.648438 271.578125 940.574219 271.90625 941.480469 272.285156 C 942.386719 272.660156 943.273438 273.078125 944.140625 273.542969 C 945.007812 274.003906 945.851562 274.511719 946.667969 275.054688 C 947.484375 275.601562 948.273438 276.1875 949.03125 276.808594 C 949.792969 277.433594 950.519531 278.09375 951.214844 278.785156 C 951.90625 279.480469 952.566406 280.207031 953.191406 280.96875 C 953.8125 281.726562 954.398438 282.515625 954.945312 283.332031 C 955.488281 284.148438 955.996094 284.992188 956.457031 285.859375 C 956.921875 286.726562 957.339844 287.613281 957.714844 288.519531 C 958.09375 289.425781 958.421875 290.351562 958.707031 291.292969 C 958.992188 292.230469 959.230469 293.183594 959.421875 294.148438 C 959.613281 295.109375 959.757812 296.082031 959.855469 297.058594 C 959.953125 298.039062 960 299.015625 960 300 Z M 960 300 " fill-opacity="1" fill-rule="nonzero"/><path fill="#000000" d="M 1140 390 C 1140 390.984375 1139.953125 391.960938 1139.855469 392.941406 C 1139.757812 393.917969 1139.613281 394.890625 1139.421875 395.851562 C 1139.230469 396.816406 1138.992188 397.769531 1138.707031 398.707031 C 1138.421875 399.648438 1138.09375 400.574219 1137.714844 401.480469 C 1137.339844 402.386719 1136.921875 403.273438 1136.457031 404.140625 C 1135.996094 405.007812 1135.488281 405.851562 1134.945312 406.667969 C 1134.398438 407.484375 1133.8125 408.273438 1133.191406 409.03125 C 1132.566406 409.792969 1131.90625 410.519531 1131.214844 411.214844 C 1130.519531 411.90625 1129.792969 412.566406 1129.03125 413.191406 C 1128.273438 413.8125 1127.484375 414.398438 1126.667969 414.945312 C 1125.851562 415.488281 1125.007812 415.996094 1124.140625 416.457031 C 1123.273438 416.921875 1122.386719 417.339844 1121.480469 417.714844 C 1120.574219 418.09375 1119.648438 418.421875 1118.707031 418.707031 C 1117.769531 418.992188 1116.816406 419.230469 1115.851562 419.421875 C 1114.890625 419.613281 1113.917969 419.757812 1112.941406 419.855469 C 1111.960938 419.953125 1110.984375 420 1110 420 C 1109.015625 420 1108.039062 419.953125 1107.058594 419.855469 C 1106.082031 419.757812 1105.109375 419.613281 1104.148438 419.421875 C 1103.183594 419.230469 1102.230469 418.992188 1101.292969 418.707031 C 1100.351562 418.421875 1099.425781 418.09375 1098.519531 417.714844 C 1097.613281 417.339844 1096.722656 416.921875 1095.859375 416.457031 C 1094.992188 415.996094 1094.148438 415.488281 1093.332031 414.945312 C 1092.515625 414.398438 1091.726562 413.8125 1090.96875 413.191406 C 1090.207031 412.566406 1089.480469 411.90625 1088.785156 411.214844 C 1088.09375 410.519531 1087.433594 409.792969 1086.808594 409.03125 C 1086.1875 408.273438 1085.601562 407.484375 1085.054688 406.667969 C 1084.511719 405.851562 1084.003906 405.007812 1083.542969 404.140625 C 1083.078125 403.273438 1082.660156 402.386719 1082.285156 401.480469 C 1081.90625 400.574219 1081.578125 399.648438 1081.292969 398.707031 C 1081.007812 397.769531 1080.769531 396.816406 1080.578125 395.851562 C 1080.382812 394.890625 1080.242188 393.917969 1080.144531 392.941406 C 1080.046875 391.960938 1080 390.984375 1080 390 C 1080 389.015625 1080.046875 388.039062 1080.144531 387.058594 C 1080.242188 386.082031 1080.382812 385.109375 1080.578125 384.148438 C 1080.769531 383.183594 1081.007812 382.230469 1081.292969 381.292969 C 1081.578125 380.351562 1081.90625 379.425781 1082.285156 378.519531 C 1082.660156 377.613281 1083.078125 376.722656 1083.542969 375.859375 C 1084.003906 374.992188 1084.511719 374.148438 1085.054688 373.332031 C 1085.601562 372.515625 1086.1875 371.726562 1086.808594 370.96875 C 1087.433594 370.207031 1088.09375 369.480469 1088.785156 368.785156 C 1089.480469 368.09375 1090.207031 367.433594 1090.96875 366.808594 C 1091.726562 366.1875 1092.515625 365.601562 1093.332031 365.054688 C 1094.148438 364.511719 1094.992188 364.003906 1095.859375 363.542969 C 1096.722656 363.078125 1097.613281 362.660156 1098.519531 362.285156 C 1099.425781 361.90625 1100.351562 361.578125 1101.292969 361.292969 C 1102.230469 361.007812 1103.183594 360.769531 1104.148438 360.578125 C 1105.109375 360.382812 1106.082031 360.242188 1107.058594 360.144531 C 1108.039062 360.046875 1109.015625 360 1110 360 C 1110.984375 360 1111.960938 360.046875 1112.941406 360.144531 C 1113.917969 360.242188 1114.890625 360.382812 1115.851562 360.578125 C 1116.816406 360.769531 1117.769531 361.007812 1118.707031 361.292969 C 1119.648438 361.578125 1120.574219 361.90625 1121.480469 362.285156 C 1122.386719 362.660156 1123.273438 363.078125 1124.140625 363.542969 C 1125.007812 364.003906 1125.851562 364.511719 1126.667969 365.054688 C 1127.484375 365.601562 1128.273438 366.1875 1129.03125 366.808594 C 1129.792969 367.433594 1130.519531 368.09375 1131.214844 368.785156 C 1131.90625 369.480469 1132.566406 370.207031 1133.191406 370.96875 C 1133.8125 371.726562 1134.398438 372.515625 1134.945312 373.332031 C 1135.488281 374.148438 1135.996094 374.992188 1136.457031 375.859375 C 1136.921875 376.722656 1137.339844 377.613281 1137.714844 378.519531 C 1138.09375 379.425781 1138.421875 380.351562 1138.707031 381.292969 C 1138.992188 382.230469 1139.230469 383.183594 1139.421875 384.148438 C 1139.613281 385.109375 1139.757812 386.082031 1139.855469 387.058594 C 1139.953125 388.039062 1140 389.015625 1140 390 Z M 1140 390 " fill-opacity="1" fill-rule="nonzero"/><path fill="#000000" d="M 750 570 C 750 636.167969 803.820312 690 870 690 C 936.179688 690 990 636.167969 990 570 C 990 503.832031 936.179688 450 870 450 C 803.820312 450 750 503.832031 750 570 Z M 930 570 C 930 603.089844 903.078125 630 870 630 C 836.921875 630 810 603.089844 810 570 C 810 536.910156 836.921875 510 870 510 C 903.078125 510 930 536.910156 930 570 Z M 930 570 " fill-opacity="1" fill-rule="nonzero"/></svg>