<svg xmlns="http://www.w3.org/2000/svg" xmlns:xlink="http://www.w3.org/1999/xlink" width="2000" zoomAndPan="magnify" viewBox="0 0 1500 1499.999933" height="2000" preserveAspectRatio="xMidYMid meet" version="1.0"><path fill="#000000" d="M 699.601562 1299.601562 L 699.601562 1449.601562 C 699.601562 1477.199219 722.003906 1499.605469 749.605469 1499.605469 C 777.191406 1499.605469 799.597656 1477.199219 799.597656 1449.601562 L 799.597656 1299.601562 C 799.597656 1272 777.191406 1249.597656 749.605469 1249.597656 C 722.003906 1249.597656 699.601562 1272 699.601562 1299.601562 Z M 1279.933594 1209.214844 L 1173.863281 1103.148438 C 1154.351562 1083.636719 1122.671875 1083.636719 1103.148438 1103.148438 C 1083.636719 1122.671875 1083.636719 1154.351562 1103.148438 1173.863281 L 1209.214844 1279.933594 C 1228.726562 1299.445312 1260.421875 1299.445312 1279.933594 1279.933594 C 1299.445312 1260.417969 1299.445312 1228.726562 1279.933594 1209.214844 Z M 325.332031 1103.148438 L 219.265625 1209.214844 C 199.753906 1228.726562 199.753906 1260.417969 219.265625 1279.933594 C 238.789062 1299.445312 270.46875 1299.445312 289.980469 1279.933594 L 396.046875 1173.863281 C 415.558594 1154.351562 415.558594 1122.671875 396.046875 1103.148438 C 376.535156 1083.636719 344.84375 1083.636719 325.332031 1103.148438 Z M 749.605469 349.597656 C 528.828125 349.597656 349.597656 528.828125 349.597656 749.605469 C 349.597656 970.367188 528.828125 1149.601562 749.605469 1149.601562 C 970.367188 1149.601562 1149.601562 970.367188 1149.601562 749.605469 C 1149.601562 528.828125 970.367188 349.597656 749.605469 349.597656 Z M 749.605469 449.605469 C 915.179688 449.605469 1049.605469 584.027344 1049.605469 749.605469 C 1049.605469 915.179688 915.179688 1049.605469 749.605469 1049.605469 C 584.027344 1049.605469 449.605469 915.179688 449.605469 749.605469 C 449.605469 584.027344 584.027344 449.605469 749.605469 449.605469 Z M 1449.601562 699.601562 L 1299.601562 699.601562 C 1272 699.601562 1249.597656 722.003906 1249.597656 749.605469 C 1249.597656 777.191406 1272 799.597656 1299.601562 799.597656 L 1449.601562 799.597656 C 1477.199219 799.597656 1499.605469 777.191406 1499.605469 749.605469 C 1499.605469 722.003906 1477.199219 699.601562 1449.601562 699.601562 Z M 199.597656 699.601562 L 49.597656 699.601562 C 22.007812 699.601562 -0.394531 722.003906 -0.394531 749.605469 C -0.394531 777.191406 22.007812 799.597656 49.597656 799.597656 L 199.597656 799.597656 C 227.195312 799.597656 249.601562 777.191406 249.601562 749.605469 C 249.601562 722.003906 227.195312 699.601562 199.597656 699.601562 Z M 1209.214844 219.265625 L 1103.148438 325.332031 C 1083.636719 344.84375 1083.636719 376.535156 1103.148438 396.046875 C 1122.671875 415.558594 1154.351562 415.558594 1173.863281 396.046875 L 1279.933594 289.980469 C 1299.445312 270.46875 1299.445312 238.789062 1279.933594 219.265625 C 1260.417969 199.753906 1228.726562 199.753906 1209.214844 219.265625 Z M 396.046875 325.332031 L 289.980469 219.265625 C 270.46875 199.753906 238.789062 199.753906 219.265625 219.265625 C 199.753906 238.789062 199.753906 270.46875 219.265625 289.980469 L 325.332031 396.046875 C 344.84375 415.558594 376.535156 415.558594 396.046875 396.046875 C 415.558594 376.535156 415.558594 344.84375 396.046875 325.332031 Z M 699.601562 49.597656 L 699.601562 199.597656 C 699.601562 227.195312 722.003906 249.601562 749.605469 249.601562 C 777.191406 249.601562 799.597656 227.195312 799.597656 199.597656 L 799.597656 49.597656 C 799.597656 22.007812 777.191406 -0.394531 749.605469 -0.394531 C 722.003906 -0.394531 699.601562 22.007812 699.601562 49.597656 Z M 699.601562 49.597656 " fill-opacity="1" fill-rule="evenodd"/></svg>